<svg xmlns="http://www.w3.org/2000/svg" xmlns:xlink="http://www.w3.org/1999/xlink" width="500" zoomAndPan="magnify" viewBox="0 0 375 374.999991" height="500" preserveAspectRatio="xMidYMid meet" version="1.0"><defs><clipPath id="95f53fbe9d"><path d="M 8 297 L 367 297 L 367 308.84375 L 8 308.84375 Z M 8 297 " clip-rule="nonzero"/></clipPath><clipPath id="562f3e5166"><path d="M 257 134.1875 L 269 134.1875 L 269 155 L 257 155 Z M 257 134.1875 " clip-rule="nonzero"/></clipPath><clipPath id="66576e21f7"><path d="M 231.785156 159 L 253 159 L 253 172 L 231.785156 172 Z M 231.785156 159 " clip-rule="nonzero"/></clipPath><clipPath id="7b0a79ad00"><path d="M 257 176 L 269 176 L 269 197.1875 L 257 197.1875 Z M 257 176 " clip-rule="nonzero"/></clipPath><clipPath id="edb49473e4"><path d="M 274 159 L 294.785156 159 L 294.785156 172 L 274 172 Z M 274 159 " clip-rule="nonzero"/></clipPath></defs><path fill="#4af626" d="M 25.390625 106.875 L 48.507812 106.875 L 48.507812 118.433594 L 25.390625 118.433594 Z M 25.390625 106.875 " fill-opacity="1" fill-rule="nonzero"/><path fill="#4af626" d="M 8.054688 141.550781 L 31.171875 141.550781 L 31.171875 153.109375 L 8.054688 153.109375 Z M 8.054688 141.550781 " fill-opacity="1" fill-rule="nonzero"/><path fill="#4af626" d="M 25.390625 176.226562 L 48.507812 176.226562 L 48.507812 187.785156 L 25.390625 187.785156 Z M 25.390625 176.226562 " fill-opacity="1" fill-rule="nonzero"/><path fill="#4af626" d="M 65.304688 164.667969 C 65.542969 164.96875 65.8125 165.242188 66.105469 165.488281 C 66.402344 165.734375 66.71875 165.949219 67.054688 166.136719 C 67.394531 166.320312 67.746094 166.46875 68.113281 166.582031 C 68.480469 166.695312 68.855469 166.769531 69.238281 166.808594 C 69.621094 166.847656 70.003906 166.847656 70.386719 166.808594 C 70.769531 166.769531 71.144531 166.695312 71.511719 166.582031 C 71.878906 166.46875 72.234375 166.320312 72.570312 166.140625 C 72.910156 165.957031 73.226562 165.742188 73.519531 165.492188 L 103.574219 140.464844 L 110.171875 142.667969 L 93.226562 173.15625 C 92.046875 175.300781 91.242188 177.574219 90.820312 179.984375 C 90.394531 182.394531 90.375 184.808594 90.753906 187.222656 L 77.289062 209.660156 L 36.949219 212.179688 C 36.585938 212.199219 36.226562 212.257812 35.875 212.347656 C 35.519531 212.4375 35.179688 212.5625 34.847656 212.71875 C 34.519531 212.871094 34.207031 213.058594 33.910156 213.273438 C 33.617188 213.484375 33.34375 213.726562 33.09375 213.992188 C 32.84375 214.257812 32.621094 214.546875 32.425781 214.855469 C 32.230469 215.164062 32.066406 215.484375 31.933594 215.824219 C 31.800781 216.164062 31.699219 216.515625 31.628906 216.871094 C 31.5625 217.230469 31.527344 217.59375 31.53125 217.957031 L 31.53125 236.90625 C 31.53125 237.285156 31.566406 237.664062 31.640625 238.035156 C 31.714844 238.40625 31.824219 238.769531 31.96875 239.121094 C 32.113281 239.46875 32.292969 239.804688 32.503906 240.117188 C 32.714844 240.433594 32.953125 240.726562 33.222656 240.992188 C 33.492188 241.261719 33.78125 241.503906 34.097656 241.710938 C 34.414062 241.921875 34.746094 242.101562 35.097656 242.246094 C 35.449219 242.390625 35.808594 242.5 36.179688 242.574219 C 36.554688 242.648438 36.929688 242.6875 37.308594 242.6875 L 86.507812 242.6875 C 87.707031 242.683594 88.890625 242.554688 90.0625 242.296875 C 91.234375 242.039062 92.363281 241.660156 93.453125 241.160156 C 94.542969 240.660156 95.5625 240.046875 96.519531 239.324219 C 97.480469 238.605469 98.347656 237.789062 99.128906 236.878906 L 117.375 215.601562 L 133.886719 228.441406 L 123.753906 279.097656 C 123.667969 279.515625 123.628906 279.941406 123.640625 280.367188 C 123.648438 280.796875 123.703125 281.21875 123.804688 281.636719 C 123.90625 282.050781 124.054688 282.449219 124.246094 282.835938 C 124.4375 283.21875 124.667969 283.574219 124.941406 283.90625 C 125.210938 284.238281 125.515625 284.539062 125.851562 284.800781 C 126.191406 285.066406 126.554688 285.289062 126.941406 285.472656 C 127.328125 285.65625 127.730469 285.796875 128.148438 285.890625 C 128.566406 285.984375 128.988281 286.03125 129.417969 286.03125 L 148.378906 286.03125 C 148.992188 286.03125 149.59375 285.933594 150.175781 285.742188 C 150.761719 285.550781 151.300781 285.273438 151.796875 284.910156 C 152.289062 284.546875 152.71875 284.113281 153.074219 283.613281 C 153.433594 283.113281 153.703125 282.570312 153.886719 281.984375 L 170.617188 229.394531 C 170.871094 228.613281 171.066406 227.816406 171.203125 227.003906 C 171.339844 226.195312 171.414062 225.378906 171.425781 224.554688 C 171.441406 223.734375 171.394531 222.914062 171.285156 222.097656 C 171.175781 221.285156 171.007812 220.480469 170.777344 219.691406 C 170.550781 218.902344 170.261719 218.132812 169.917969 217.386719 C 169.574219 216.640625 169.179688 215.921875 168.726562 215.234375 C 168.277344 214.546875 167.777344 213.898438 167.230469 213.285156 C 166.679688 212.671875 166.089844 212.101562 165.457031 211.578125 L 142.21875 192.210938 L 149.691406 178.804688 L 158.890625 191.664062 C 159.761719 192.886719 160.777344 193.96875 161.941406 194.917969 C 163.105469 195.863281 164.375 196.636719 165.746094 197.238281 C 167.121094 197.839844 168.550781 198.25 170.035156 198.464844 C 171.519531 198.675781 173.007812 198.6875 174.496094 198.5 L 211.429688 193.875 C 211.777344 193.832031 212.117188 193.757812 212.449219 193.652344 C 212.78125 193.546875 213.105469 193.414062 213.414062 193.25 C 213.722656 193.085938 214.011719 192.894531 214.285156 192.679688 C 214.5625 192.464844 214.8125 192.222656 215.042969 191.960938 C 215.273438 191.699219 215.480469 191.417969 215.660156 191.121094 C 215.839844 190.820312 215.992188 190.507812 216.117188 190.179688 C 216.238281 189.855469 216.332031 189.519531 216.394531 189.175781 C 216.457031 188.832031 216.488281 188.484375 216.488281 188.136719 L 216.488281 171.890625 C 216.488281 171.511719 216.449219 171.136719 216.375 170.765625 C 216.300781 170.390625 216.191406 170.03125 216.046875 169.679688 C 215.902344 169.328125 215.722656 168.996094 215.511719 168.679688 C 215.300781 168.363281 215.0625 168.074219 214.792969 167.804688 C 214.527344 167.535156 214.234375 167.296875 213.917969 167.085938 C 213.601562 166.875 213.269531 166.699219 212.917969 166.550781 C 212.570312 166.40625 212.207031 166.296875 211.835938 166.222656 C 211.464844 166.148438 211.085938 166.113281 210.707031 166.113281 L 182.089844 166.113281 L 177.800781 155.378906 C 175.949219 150.761719 173.558594 146.4375 170.632812 142.414062 C 167.707031 138.386719 164.335938 134.777344 160.515625 131.585938 L 160.359375 131.460938 C 160.886719 131.496094 161.386719 131.617188 161.925781 131.617188 C 162.808594 131.621094 163.6875 131.578125 164.566406 131.488281 C 165.441406 131.398438 166.3125 131.261719 167.175781 131.078125 C 168.039062 130.894531 168.886719 130.667969 169.726562 130.394531 C 170.566406 130.121094 171.386719 129.804688 172.191406 129.445312 C 172.996094 129.085938 173.78125 128.683594 174.542969 128.238281 C 175.304688 127.792969 176.039062 127.3125 176.75 126.789062 C 177.460938 126.265625 178.140625 125.707031 178.792969 125.113281 C 179.445312 124.519531 180.0625 123.890625 180.644531 123.230469 C 181.230469 122.570312 181.777344 121.878906 182.289062 121.160156 C 182.800781 120.441406 183.269531 119.699219 183.703125 118.929688 C 184.132812 118.160156 184.523438 117.371094 184.871094 116.5625 C 185.21875 115.75 185.523438 114.925781 185.78125 114.082031 C 186.042969 113.238281 186.257812 112.382812 186.425781 111.519531 C 186.59375 110.652344 186.714844 109.78125 186.792969 108.902344 C 186.867188 108.023438 186.894531 107.144531 186.878906 106.261719 C 186.859375 105.378906 186.796875 104.5 186.683594 103.628906 C 186.574219 102.753906 186.414062 101.886719 186.210938 101.027344 C 186.007812 100.167969 185.761719 99.324219 185.464844 98.492188 C 185.171875 97.660156 184.835938 96.847656 184.457031 96.050781 C 184.074219 95.257812 183.652344 94.484375 183.191406 93.734375 C 182.730469 92.980469 182.226562 92.257812 181.6875 91.558594 C 181.148438 90.863281 180.574219 90.195312 179.964844 89.558594 C 179.351562 88.921875 178.710938 88.320312 178.035156 87.753906 C 177.359375 87.183594 176.65625 86.65625 175.925781 86.160156 C 175.195312 85.667969 174.441406 85.214844 173.660156 84.804688 C 172.882812 84.390625 172.082031 84.019531 171.261719 83.691406 C 170.445312 83.367188 169.609375 83.082031 168.761719 82.84375 C 167.914062 82.605469 167.054688 82.410156 166.183594 82.265625 C 165.316406 82.117188 164.441406 82.015625 163.558594 81.960938 C 162.679688 81.90625 161.800781 81.902344 160.917969 81.941406 C 160.039062 81.980469 159.160156 82.066406 158.289062 82.199219 C 157.417969 82.332031 156.554688 82.511719 155.703125 82.734375 C 154.847656 82.960938 154.011719 83.230469 153.1875 83.542969 C 152.363281 83.855469 151.558594 84.214844 150.773438 84.613281 C 149.984375 85.011719 149.222656 85.453125 148.484375 85.933594 C 147.746094 86.414062 147.03125 86.933594 146.347656 87.488281 C 145.664062 88.046875 145.011719 88.636719 144.390625 89.265625 C 143.769531 89.890625 143.183594 90.546875 142.632812 91.234375 C 142.082031 91.925781 141.570312 92.640625 141.09375 93.382812 C 140.617188 94.125 140.183594 94.890625 139.792969 95.679688 C 139.398438 96.46875 139.046875 97.277344 138.742188 98.105469 C 138.433594 98.933594 138.171875 99.773438 137.953125 100.625 C 137.734375 101.480469 137.5625 102.34375 137.4375 103.21875 C 137.3125 104.089844 137.230469 104.96875 137.199219 105.847656 C 137.167969 106.730469 137.179688 107.609375 137.242188 108.492188 C 137.304688 109.371094 137.410156 110.246094 137.566406 111.113281 C 137.71875 111.980469 137.917969 112.839844 138.164062 113.683594 C 138.410156 114.53125 138.699219 115.363281 139.035156 116.179688 C 132.191406 112.746094 124.976562 110.480469 117.398438 109.382812 L 102.84375 107.304688 C 101.621094 107.125 100.390625 107.082031 99.15625 107.179688 C 97.921875 107.277344 96.710938 107.511719 95.53125 107.882812 C 94.347656 108.25 93.222656 108.746094 92.152344 109.371094 C 91.082031 109.992188 90.09375 110.726562 89.1875 111.574219 L 55.050781 143.285156 C 54.785156 143.53125 54.546875 143.800781 54.332031 144.089844 C 54.117188 144.382812 53.929688 144.691406 53.773438 145.015625 C 53.617188 145.34375 53.492188 145.679688 53.398438 146.03125 C 53.304688 146.378906 53.246094 146.734375 53.21875 147.09375 C 53.195312 147.457031 53.199219 147.816406 53.242188 148.175781 C 53.28125 148.535156 53.355469 148.886719 53.464844 149.234375 C 53.570312 149.578125 53.710938 149.910156 53.878906 150.230469 C 54.050781 150.550781 54.246094 150.851562 54.472656 151.132812 Z M 90.367188 229.335938 C 89.882812 229.898438 89.300781 230.332031 88.628906 230.644531 C 87.957031 230.957031 87.25 231.117188 86.507812 231.128906 L 43.089844 231.128906 L 43.089844 223.371094 L 81.015625 221.003906 C 81.972656 220.949219 82.855469 220.675781 83.675781 220.179688 C 84.492188 219.6875 85.148438 219.03125 85.640625 218.210938 L 96.933594 199.371094 C 97.570312 200.046875 98.25 200.679688 98.972656 201.265625 L 108.265625 208.496094 Z M 161.925781 93.691406 C 162.792969 93.691406 163.648438 93.777344 164.496094 93.945312 C 165.347656 94.113281 166.171875 94.367188 166.96875 94.695312 C 167.769531 95.027344 168.53125 95.433594 169.25 95.914062 C 169.96875 96.394531 170.636719 96.941406 171.246094 97.554688 C 171.859375 98.167969 172.40625 98.832031 172.886719 99.550781 C 173.367188 100.269531 173.773438 101.03125 174.105469 101.832031 C 174.4375 102.628906 174.6875 103.453125 174.855469 104.304688 C 175.023438 105.152344 175.109375 106.011719 175.109375 106.875 C 175.109375 107.742188 175.023438 108.597656 174.855469 109.445312 C 174.6875 110.296875 174.4375 111.121094 174.105469 111.921875 C 173.773438 112.71875 173.367188 113.480469 172.886719 114.199219 C 172.40625 114.917969 171.859375 115.585938 171.246094 116.195312 C 170.636719 116.808594 169.96875 117.355469 169.25 117.835938 C 168.53125 118.316406 167.769531 118.722656 166.96875 119.054688 C 166.171875 119.386719 165.347656 119.636719 164.496094 119.804688 C 163.648438 119.972656 162.792969 120.058594 161.925781 120.058594 C 161.058594 120.058594 160.203125 119.972656 159.355469 119.804688 C 158.503906 119.636719 157.679688 119.386719 156.882812 119.054688 C 156.082031 118.722656 155.320312 118.316406 154.601562 117.835938 C 153.882812 117.355469 153.214844 116.808594 152.605469 116.195312 C 151.992188 115.585938 151.445312 114.917969 150.964844 114.199219 C 150.484375 113.480469 150.078125 112.71875 149.746094 111.921875 C 149.414062 111.121094 149.164062 110.296875 148.996094 109.445312 C 148.828125 108.597656 148.742188 107.742188 148.742188 106.875 C 148.746094 106.011719 148.828125 105.152344 149 104.304688 C 149.167969 103.457031 149.417969 102.632812 149.75 101.832031 C 150.082031 101.03125 150.488281 100.273438 150.96875 99.554688 C 151.449219 98.835938 151.996094 98.167969 152.609375 97.558594 C 153.21875 96.945312 153.886719 96.398438 154.605469 95.917969 C 155.324219 95.4375 156.082031 95.03125 156.882812 94.699219 C 157.683594 94.367188 158.507812 94.117188 159.355469 93.949219 C 160.203125 93.777344 161.0625 93.695312 161.925781 93.691406 Z M 97.054688 120.039062 C 97.613281 119.519531 98.253906 119.148438 98.980469 118.921875 C 99.710938 118.695312 100.449219 118.636719 101.203125 118.746094 L 115.753906 120.828125 C 121.195312 121.601562 126.421875 123.105469 131.441406 125.335938 C 136.460938 127.566406 141.078125 130.441406 145.300781 133.957031 L 153.113281 140.46875 C 156.195312 143.042969 158.917969 145.957031 161.28125 149.207031 C 163.640625 152.457031 165.570312 155.945312 167.0625 159.675781 L 172.808594 174.042969 C 173.023438 174.578125 173.3125 175.070312 173.671875 175.519531 C 174.035156 175.96875 174.457031 176.355469 174.933594 176.679688 C 175.410156 177 175.925781 177.246094 176.476562 177.417969 C 177.03125 177.585938 177.59375 177.671875 178.171875 177.671875 L 204.898438 177.671875 L 204.898438 183.046875 L 173.035156 187.027344 C 172.113281 187.136719 171.226562 187.007812 170.378906 186.632812 C 169.527344 186.261719 168.832031 185.699219 168.289062 184.945312 L 153.78125 164.632812 C 153.640625 164.433594 153.488281 164.246094 153.324219 164.070312 C 153.160156 163.890625 152.984375 163.722656 152.800781 163.566406 C 152.613281 163.410156 152.417969 163.269531 152.214844 163.136719 C 152.011719 163.003906 151.800781 162.886719 151.582031 162.78125 C 151.363281 162.675781 151.136719 162.585938 150.90625 162.507812 C 150.675781 162.433594 150.441406 162.371094 150.207031 162.324219 C 149.96875 162.277344 149.726562 162.242188 149.484375 162.226562 C 149.242188 162.210938 149 162.207031 148.757812 162.222656 C 148.515625 162.234375 148.277344 162.265625 148.039062 162.308594 C 147.796875 162.351562 147.5625 162.410156 147.332031 162.484375 C 147.101562 162.558594 146.875 162.644531 146.65625 162.746094 C 146.433594 162.847656 146.222656 162.964844 146.015625 163.089844 C 145.8125 163.21875 145.613281 163.359375 145.425781 163.515625 C 145.238281 163.667969 145.058594 163.832031 144.894531 164.007812 C 144.726562 164.183594 144.570312 164.371094 144.425781 164.566406 C 144.28125 164.761719 144.152344 164.964844 144.035156 165.175781 L 129.78125 190.75 C 129.453125 191.339844 129.234375 191.964844 129.125 192.628906 C 129.015625 193.296875 129.023438 193.960938 129.148438 194.621094 C 129.269531 195.285156 129.503906 195.90625 129.84375 196.488281 C 130.1875 197.070312 130.617188 197.578125 131.132812 198.007812 L 158.042969 220.417969 C 158.425781 220.742188 158.753906 221.117188 159.027344 221.535156 C 159.300781 221.957031 159.507812 222.410156 159.648438 222.890625 C 159.789062 223.375 159.855469 223.867188 159.847656 224.371094 C 159.839844 224.871094 159.761719 225.363281 159.609375 225.839844 L 144.15625 274.472656 L 136.46875 274.472656 L 145.917969 227.203125 C 146.023438 226.679688 146.054688 226.148438 146.011719 225.613281 C 145.972656 225.078125 145.855469 224.558594 145.667969 224.054688 C 145.484375 223.550781 145.230469 223.082031 144.914062 222.648438 C 144.597656 222.21875 144.226562 221.835938 143.800781 221.507812 L 106.039062 192.148438 C 105.550781 191.765625 105.09375 191.347656 104.679688 190.882812 C 104.261719 190.421875 103.890625 189.929688 103.5625 189.398438 C 103.234375 188.871094 102.953125 188.320312 102.722656 187.742188 C 102.492188 187.164062 102.316406 186.570312 102.191406 185.960938 C 102.070312 185.351562 102 184.738281 101.984375 184.117188 C 101.96875 183.492188 102.011719 182.875 102.105469 182.261719 C 102.203125 181.648438 102.351562 181.046875 102.554688 180.457031 C 102.757812 179.871094 103.007812 179.304688 103.3125 178.761719 L 123.640625 142.191406 C 123.84375 141.820312 124.007812 141.429688 124.128906 141.023438 C 124.25 140.617188 124.324219 140.203125 124.355469 139.777344 C 124.382812 139.355469 124.367188 138.933594 124.300781 138.511719 C 124.238281 138.09375 124.128906 137.683594 123.976562 137.289062 C 123.820312 136.890625 123.625 136.515625 123.390625 136.164062 C 123.152344 135.8125 122.878906 135.488281 122.574219 135.195312 C 122.265625 134.902344 121.929688 134.648438 121.566406 134.429688 C 121.199219 134.210938 120.816406 134.03125 120.414062 133.898438 L 104.164062 128.484375 C 103.214844 128.167969 102.246094 128.101562 101.261719 128.285156 C 100.277344 128.46875 99.402344 128.882812 98.632812 129.523438 L 70.65625 152.84375 L 66.859375 148.09375 Z M 97.054688 120.039062 " fill-opacity="1" fill-rule="nonzero"/><g clip-path="url(#95f53fbe9d)"><path fill="#4af626" d="M 8.054688 297.589844 L 366.367188 297.589844 L 366.367188 309.148438 L 8.054688 309.148438 Z M 8.054688 297.589844 " fill-opacity="1" fill-rule="nonzero"/></g><path fill="#4af626" d="M 291.234375 106.875 L 291.234375 89.273438 L 353.308594 170.445312 L 291.234375 251.621094 L 291.234375 234.019531 C 291.234375 233.636719 291.199219 233.261719 291.125 232.890625 C 291.050781 232.519531 290.941406 232.15625 290.796875 231.804688 C 290.652344 231.457031 290.472656 231.121094 290.261719 230.808594 C 290.050781 230.492188 289.8125 230.199219 289.542969 229.929688 C 289.273438 229.664062 288.984375 229.421875 288.667969 229.210938 C 288.351562 229 288.019531 228.824219 287.667969 228.679688 C 287.316406 228.535156 286.957031 228.425781 286.582031 228.351562 C 286.210938 228.277344 285.835938 228.238281 285.457031 228.238281 L 187.210938 228.238281 L 187.210938 239.796875 L 279.675781 239.796875 L 279.675781 268.691406 C 279.675781 269.296875 279.769531 269.886719 279.957031 270.460938 C 280.140625 271.039062 280.410156 271.570312 280.761719 272.0625 C 281.113281 272.550781 281.535156 272.976562 282.019531 273.335938 C 282.503906 273.695312 283.035156 273.972656 283.605469 274.167969 C 284.207031 274.371094 284.824219 274.472656 285.457031 274.472656 C 286.355469 274.472656 287.210938 274.273438 288.015625 273.871094 C 288.824219 273.472656 289.5 272.917969 290.046875 272.203125 L 365.175781 173.953125 C 365.558594 173.449219 365.855469 172.898438 366.058594 172.296875 C 366.261719 171.699219 366.363281 171.082031 366.363281 170.445312 C 366.363281 169.8125 366.261719 169.195312 366.058594 168.59375 C 365.855469 167.996094 365.558594 167.441406 365.175781 166.9375 L 290.046875 68.691406 C 289.679688 68.210938 289.246094 67.800781 288.75 67.457031 C 288.253906 67.113281 287.71875 66.851562 287.140625 66.675781 C 286.5625 66.5 285.972656 66.417969 285.367188 66.425781 C 284.765625 66.4375 284.175781 66.539062 283.605469 66.730469 C 283.03125 66.925781 282.503906 67.199219 282.019531 67.558594 C 281.53125 67.917969 281.113281 68.34375 280.761719 68.835938 C 280.410156 69.324219 280.140625 69.859375 279.957031 70.433594 C 279.769531 71.007812 279.679688 71.597656 279.675781 72.199219 L 279.675781 101.097656 L 204.546875 101.097656 L 204.546875 112.65625 L 285.457031 112.65625 C 285.835938 112.65625 286.210938 112.617188 286.582031 112.542969 C 286.957031 112.46875 287.316406 112.359375 287.667969 112.214844 C 288.019531 112.070312 288.351562 111.890625 288.667969 111.679688 C 288.984375 111.46875 289.273438 111.230469 289.542969 110.960938 C 289.8125 110.695312 290.050781 110.402344 290.261719 110.085938 C 290.472656 109.769531 290.652344 109.4375 290.796875 109.085938 C 290.941406 108.738281 291.050781 108.375 291.125 108.003906 C 291.199219 107.628906 291.234375 107.253906 291.234375 106.875 Z M 291.234375 106.875 " fill-opacity="1" fill-rule="nonzero"/><path fill="#4af626" d="M 269.089844 159.765625 C 267.160156 159.707031 265.203125 159.679688 263.230469 159.679688 C 261.257812 159.679688 259.300781 159.707031 257.375 159.765625 C 257.308594 161.695312 257.273438 163.65625 257.273438 165.636719 C 257.273438 167.617188 257.308594 169.578125 257.375 171.507812 C 259.300781 171.5625 261.257812 171.589844 263.230469 171.589844 C 265.203125 171.589844 267.160156 171.5625 269.089844 171.507812 C 269.15625 169.578125 269.1875 167.617188 269.1875 165.636719 C 269.1875 163.65625 269.15625 161.695312 269.089844 159.765625 Z M 269.089844 159.765625 " fill-opacity="1" fill-rule="nonzero"/><g clip-path="url(#562f3e5166)"><path fill="#4af626" d="M 263.230469 154.371094 C 265.117188 154.371094 266.984375 154.398438 268.824219 154.445312 C 268.46875 149.121094 267.863281 144.179688 267.035156 139.980469 C 266.609375 137.839844 266.128906 135.910156 265.617188 134.277344 C 264.824219 134.21875 264.03125 134.191406 263.230469 134.191406 C 262.433594 134.191406 261.636719 134.21875 260.847656 134.277344 C 260.332031 135.910156 259.851562 137.839844 259.429688 139.980469 C 258.597656 144.179688 257.992188 149.121094 257.636719 154.445312 C 259.480469 154.398438 261.347656 154.371094 263.230469 154.371094 Z M 263.230469 154.371094 " fill-opacity="1" fill-rule="nonzero"/></g><g clip-path="url(#66576e21f7)"><path fill="#4af626" d="M 252.054688 171.277344 C 251.996094 169.425781 251.96875 167.539062 251.96875 165.636719 C 251.96875 163.730469 251.996094 161.847656 252.054688 159.992188 C 246.019531 160.335938 240.410156 160.960938 235.675781 161.828125 C 234.332031 162.074219 233.082031 162.335938 231.929688 162.609375 C 231.832031 163.609375 231.785156 164.621094 231.785156 165.636719 C 231.785156 166.652344 231.832031 167.660156 231.929688 168.660156 C 233.082031 168.933594 234.332031 169.195312 235.675781 169.441406 C 240.410156 170.308594 246.015625 170.933594 252.054688 171.277344 Z M 252.054688 171.277344 " fill-opacity="1" fill-rule="nonzero"/></g><g clip-path="url(#7b0a79ad00)"><path fill="#4af626" d="M 263.230469 176.898438 C 261.347656 176.898438 259.480469 176.875 257.636719 176.824219 C 257.992188 182.148438 258.597656 187.089844 259.429688 191.289062 C 259.851562 193.429688 260.332031 195.359375 260.847656 196.992188 C 261.636719 197.050781 262.433594 197.082031 263.230469 197.082031 C 264.03125 197.082031 264.824219 197.050781 265.617188 196.992188 C 266.128906 195.359375 266.609375 193.429688 267.035156 191.289062 C 267.863281 187.089844 268.46875 182.148438 268.824219 176.824219 C 266.984375 176.875 265.117188 176.898438 263.230469 176.898438 Z M 263.230469 176.898438 " fill-opacity="1" fill-rule="nonzero"/></g><path fill="#4af626" d="M 254.550781 193.898438 C 253.472656 188.996094 252.710938 183.066406 252.304688 176.609375 C 245.082031 176.222656 238.449219 175.445312 233.003906 174.332031 C 233.347656 175.53125 233.765625 176.714844 234.257812 177.878906 C 235.839844 181.621094 238.109375 184.984375 240.996094 187.871094 C 243.882812 190.757812 247.246094 193.023438 250.988281 194.609375 C 252.316406 195.171875 253.671875 195.636719 255.050781 196.007812 C 254.878906 195.332031 254.710938 194.628906 254.550781 193.898438 Z M 254.550781 193.898438 " fill-opacity="1" fill-rule="nonzero"/><g clip-path="url(#edb49473e4)"><path fill="#4af626" d="M 290.789062 169.441406 C 292.128906 169.195312 293.378906 168.933594 294.535156 168.660156 C 294.628906 167.660156 294.675781 166.652344 294.675781 165.636719 C 294.675781 164.621094 294.628906 163.609375 294.535156 162.609375 C 293.378906 162.335938 292.128906 162.074219 290.789062 161.828125 C 286.050781 160.960938 280.445312 160.335938 274.40625 159.992188 C 274.464844 161.847656 274.496094 163.730469 274.496094 165.636719 C 274.496094 167.539062 274.464844 169.425781 274.40625 171.277344 C 280.445312 170.933594 286.050781 170.308594 290.789062 169.441406 Z M 290.789062 169.441406 " fill-opacity="1" fill-rule="nonzero"/></g><path fill="#4af626" d="M 252.304688 154.660156 C 252.710938 148.203125 253.472656 142.273438 254.550781 137.375 C 254.710938 136.640625 254.878906 135.9375 255.050781 135.261719 C 253.671875 135.632812 252.316406 136.101562 250.992188 136.664062 C 247.246094 138.246094 243.882812 140.511719 240.996094 143.398438 C 238.109375 146.285156 235.84375 149.648438 234.257812 153.394531 C 233.765625 154.554688 233.347656 155.738281 233.003906 156.941406 C 238.449219 155.828125 245.085938 155.050781 252.304688 154.660156 Z M 252.304688 154.660156 " fill-opacity="1" fill-rule="nonzero"/><path fill="#4af626" d="M 274.15625 176.609375 C 273.753906 183.066406 272.988281 188.996094 271.910156 193.898438 C 271.75 194.628906 271.582031 195.332031 271.410156 196.007812 C 272.789062 195.636719 274.144531 195.171875 275.472656 194.609375 C 279.21875 193.023438 282.578125 190.757812 285.464844 187.871094 C 288.351562 184.984375 290.621094 181.621094 292.203125 177.878906 C 292.695312 176.714844 293.113281 175.53125 293.460938 174.332031 C 288.011719 175.445312 281.378906 176.21875 274.15625 176.609375 Z M 274.15625 176.609375 " fill-opacity="1" fill-rule="nonzero"/><path fill="#4af626" d="M 271.910156 137.375 C 272.988281 142.273438 273.753906 148.203125 274.15625 154.660156 C 281.378906 155.050781 288.011719 155.828125 293.460938 156.941406 C 293.113281 155.738281 292.695312 154.554688 292.203125 153.394531 C 290.621094 149.648438 288.355469 146.285156 285.46875 143.398438 C 282.582031 140.511719 279.21875 138.246094 275.472656 136.664062 C 274.144531 136.101562 272.789062 135.632812 271.410156 135.261719 C 271.582031 135.9375 271.75 136.640625 271.910156 137.375 Z M 271.910156 137.375 " fill-opacity="1" fill-rule="nonzero"/></svg>