<svg xmlns="http://www.w3.org/2000/svg" xmlns:xlink="http://www.w3.org/1999/xlink" width="600" zoomAndPan="magnify" viewBox="0 0 450 149.999998" height="200" preserveAspectRatio="xMidYMid meet" version="1.0"><defs><g/><clipPath id="3f7e7e1829"><path d="M 274.394531 53 L 286 53 L 286 59 L 274.394531 59 Z M 274.394531 53 " clip-rule="nonzero"/></clipPath><clipPath id="f9af140d00"><path d="M 274.394531 129 L 449.894531 129 L 449.894531 135 L 274.394531 135 Z M 274.394531 129 " clip-rule="nonzero"/></clipPath><clipPath id="2bbc5e7c71"><path d="M 362 16.027344 L 449.894531 16.027344 L 449.894531 119 L 362 119 Z M 362 16.027344 " clip-rule="nonzero"/></clipPath></defs><g fill="#4af626" fill-opacity="1"><g transform="translate(0.00000375, 112.903929)"><g><path d="M 69.40625 -5.875 C 69.40625 -1.375 67.695312 0.875 64.28125 0.875 C 60.78125 0.875 59.03125 -1.332031 59.03125 -5.75 L 59.03125 -29.390625 C 59.03125 -31.640625 58.90625 -33.453125 58.65625 -34.828125 C 58.40625 -36.203125 57.96875 -37.265625 57.34375 -38.015625 C 56.71875 -38.765625 55.863281 -39.285156 54.78125 -39.578125 C 53.695312 -39.867188 52.28125 -40.015625 50.53125 -40.015625 L 34.890625 -40.015625 C 32.804688 -40.015625 31.160156 -39.890625 29.953125 -39.640625 C 28.742188 -39.390625 27.804688 -38.890625 27.140625 -38.140625 C 26.472656 -37.390625 26.035156 -36.304688 25.828125 -34.890625 C 25.617188 -33.472656 25.515625 -31.597656 25.515625 -29.265625 L 25.515625 -10.5 C 25.515625 -6.5 24.828125 -3.75 23.453125 -2.25 C 22.078125 -0.75 19.597656 0 16.015625 0 C 12.171875 0 9.519531 -0.75 8.0625 -2.25 C 6.601562 -3.75 5.875 -6.375 5.875 -10.125 L 5.875 -75.65625 C 5.875 -78.582031 6.289062 -80.671875 7.125 -81.921875 C 7.957031 -83.171875 9.332031 -83.796875 11.25 -83.796875 C 13.164062 -83.796875 14.519531 -83.210938 15.3125 -82.046875 C 16.113281 -80.878906 16.515625 -78.832031 16.515625 -75.90625 L 16.515625 -60.78125 C 16.515625 -58.53125 16.617188 -56.71875 16.828125 -55.34375 C 17.035156 -53.96875 17.492188 -52.925781 18.203125 -52.21875 C 18.910156 -51.507812 19.953125 -51.050781 21.328125 -50.84375 C 22.703125 -50.632812 24.597656 -50.53125 27.015625 -50.53125 L 49.78125 -50.53125 C 51.78125 -50.53125 53.382812 -50.65625 54.59375 -50.90625 C 55.800781 -51.15625 56.738281 -51.65625 57.40625 -52.40625 C 58.070312 -53.15625 58.507812 -54.21875 58.71875 -55.59375 C 58.925781 -56.96875 59.03125 -58.820312 59.03125 -61.15625 L 59.03125 -76.40625 C 59.03125 -79.082031 59.40625 -80.984375 60.15625 -82.109375 C 60.90625 -83.234375 62.195312 -83.796875 64.03125 -83.796875 C 67.613281 -83.796875 69.40625 -81.5 69.40625 -76.90625 Z M 69.40625 -5.875 "/></g></g></g><g fill="#4af626" fill-opacity="1"><g transform="translate(75.285894, 112.903929)"><g><path d="M 46.890625 -10.125 C 46.890625 -6.375 46.179688 -3.75 44.765625 -2.25 C 43.347656 -0.75 40.804688 0 37.140625 0 C 33.472656 0 30.929688 -0.75 29.515625 -2.25 C 28.097656 -3.75 27.390625 -6.375 27.390625 -10.125 L 27.390625 -62.15625 C 27.390625 -63.738281 27.367188 -65.007812 27.328125 -65.96875 C 27.285156 -66.925781 27.203125 -67.71875 27.078125 -68.34375 C 26.953125 -68.96875 26.785156 -69.46875 26.578125 -69.84375 C 26.367188 -70.21875 26.097656 -70.613281 25.765625 -71.03125 C 25.347656 -71.445312 24.929688 -71.78125 24.515625 -72.03125 C 24.097656 -72.28125 23.554688 -72.46875 22.890625 -72.59375 C 22.222656 -72.71875 21.367188 -72.800781 20.328125 -72.84375 C 19.285156 -72.882812 17.890625 -72.90625 16.140625 -72.90625 L 9.875 -72.90625 C 7.289062 -72.90625 5.414062 -73.300781 4.25 -74.09375 C 3.082031 -74.882812 2.5 -76.238281 2.5 -78.15625 C 2.5 -80 3.101562 -81.335938 4.3125 -82.171875 C 5.519531 -83.003906 7.457031 -83.421875 10.125 -83.421875 L 56.40625 -83.421875 C 59.488281 -83.421875 61.632812 -83.046875 62.84375 -82.296875 C 64.050781 -81.546875 64.65625 -80.210938 64.65625 -78.296875 C 64.65625 -77.203125 64.425781 -76.238281 63.96875 -75.40625 C 63.507812 -74.570312 62.90625 -73.988281 62.15625 -73.65625 C 61.488281 -73.320312 60.695312 -73.113281 59.78125 -73.03125 C 58.863281 -72.945312 57.445312 -72.90625 55.53125 -72.90625 L 46.515625 -72.90625 C 44.679688 -72.90625 43.203125 -72.78125 42.078125 -72.53125 C 40.953125 -72.28125 40.078125 -71.78125 39.453125 -71.03125 C 38.828125 -70.28125 38.410156 -69.238281 38.203125 -67.90625 C 37.992188 -66.570312 37.890625 -64.863281 37.890625 -62.78125 C 37.890625 -60.53125 37.929688 -58.71875 38.015625 -57.34375 C 38.097656 -55.96875 38.265625 -54.882812 38.515625 -54.09375 C 38.765625 -53.300781 39.117188 -52.71875 39.578125 -52.34375 C 40.035156 -51.96875 40.640625 -51.613281 41.390625 -51.28125 L 43.015625 -50.65625 C 44.597656 -49.988281 45.640625 -49.085938 46.140625 -47.953125 C 46.640625 -46.828125 46.890625 -44.722656 46.890625 -41.640625 Z M 46.890625 -10.125 "/></g></g></g><g fill="#4af626" fill-opacity="1"><g transform="translate(142.442899, 112.903929)"><g><path d="M 46.890625 -10.125 C 46.890625 -6.375 46.179688 -3.75 44.765625 -2.25 C 43.347656 -0.75 40.804688 0 37.140625 0 C 33.472656 0 30.929688 -0.75 29.515625 -2.25 C 28.097656 -3.75 27.390625 -6.375 27.390625 -10.125 L 27.390625 -62.15625 C 27.390625 -63.738281 27.367188 -65.007812 27.328125 -65.96875 C 27.285156 -66.925781 27.203125 -67.71875 27.078125 -68.34375 C 26.953125 -68.96875 26.785156 -69.46875 26.578125 -69.84375 C 26.367188 -70.21875 26.097656 -70.613281 25.765625 -71.03125 C 25.347656 -71.445312 24.929688 -71.78125 24.515625 -72.03125 C 24.097656 -72.28125 23.554688 -72.46875 22.890625 -72.59375 C 22.222656 -72.71875 21.367188 -72.800781 20.328125 -72.84375 C 19.285156 -72.882812 17.890625 -72.90625 16.140625 -72.90625 L 9.875 -72.90625 C 7.289062 -72.90625 5.414062 -73.300781 4.25 -74.09375 C 3.082031 -74.882812 2.5 -76.238281 2.5 -78.15625 C 2.5 -80 3.101562 -81.335938 4.3125 -82.171875 C 5.519531 -83.003906 7.457031 -83.421875 10.125 -83.421875 L 56.40625 -83.421875 C 59.488281 -83.421875 61.632812 -83.046875 62.84375 -82.296875 C 64.050781 -81.546875 64.65625 -80.210938 64.65625 -78.296875 C 64.65625 -77.203125 64.425781 -76.238281 63.96875 -75.40625 C 63.507812 -74.570312 62.90625 -73.988281 62.15625 -73.65625 C 61.488281 -73.320312 60.695312 -73.113281 59.78125 -73.03125 C 58.863281 -72.945312 57.445312 -72.90625 55.53125 -72.90625 L 46.515625 -72.90625 C 44.679688 -72.90625 43.203125 -72.78125 42.078125 -72.53125 C 40.953125 -72.28125 40.078125 -71.78125 39.453125 -71.03125 C 38.828125 -70.28125 38.410156 -69.238281 38.203125 -67.90625 C 37.992188 -66.570312 37.890625 -64.863281 37.890625 -62.78125 C 37.890625 -60.53125 37.929688 -58.71875 38.015625 -57.34375 C 38.097656 -55.96875 38.265625 -54.882812 38.515625 -54.09375 C 38.765625 -53.300781 39.117188 -52.71875 39.578125 -52.34375 C 40.035156 -51.96875 40.640625 -51.613281 41.390625 -51.28125 L 43.015625 -50.65625 C 44.597656 -49.988281 45.640625 -49.085938 46.140625 -47.953125 C 46.640625 -46.828125 46.890625 -44.722656 46.890625 -41.640625 Z M 46.890625 -10.125 "/></g></g></g><g fill="#4af626" fill-opacity="1"><g transform="translate(209.599905, 112.903929)"><g><path d="M 61.40625 -51.90625 C 61.40625 -49.488281 61.238281 -47.503906 60.90625 -45.953125 C 60.570312 -44.410156 59.945312 -43.222656 59.03125 -42.390625 C 58.113281 -41.554688 56.820312 -40.992188 55.15625 -40.703125 C 53.488281 -40.410156 51.320312 -40.265625 48.65625 -40.265625 L 35.015625 -40.265625 C 32.847656 -40.265625 31.140625 -40.160156 29.890625 -39.953125 C 28.640625 -39.742188 27.679688 -39.265625 27.015625 -38.515625 C 26.347656 -37.765625 25.929688 -36.679688 25.765625 -35.265625 C 25.597656 -33.847656 25.515625 -31.890625 25.515625 -29.390625 L 25.515625 -11.875 C 25.515625 -7.207031 24.828125 -4.0625 23.453125 -2.4375 C 22.078125 -0.8125 19.425781 0 15.5 0 C 12.082031 0 9.539062 -0.832031 7.875 -2.5 C 7.039062 -3.332031 6.5 -4.375 6.25 -5.625 C 6 -6.875 5.875 -8.875 5.875 -11.625 L 5.875 -72.40625 C 5.875 -74.65625 6.039062 -76.488281 6.375 -77.90625 C 6.707031 -79.332031 7.351562 -80.460938 8.3125 -81.296875 C 9.269531 -82.128906 10.582031 -82.691406 12.25 -82.984375 C 13.914062 -83.273438 16.085938 -83.421875 18.765625 -83.421875 L 48.15625 -83.421875 C 51.070312 -83.421875 53.21875 -83.316406 54.59375 -83.109375 C 55.96875 -82.898438 57.113281 -82.460938 58.03125 -81.796875 C 58.78125 -81.296875 59.363281 -80.796875 59.78125 -80.296875 C 60.195312 -79.796875 60.53125 -79.144531 60.78125 -78.34375 C 61.03125 -77.550781 61.195312 -76.550781 61.28125 -75.34375 C 61.363281 -74.132812 61.40625 -72.613281 61.40625 -70.78125 Z M 25.515625 -72.78125 C 23.515625 -72.78125 21.929688 -72.65625 20.765625 -72.40625 C 19.597656 -72.15625 18.679688 -71.632812 18.015625 -70.84375 C 17.347656 -70.050781 16.910156 -68.945312 16.703125 -67.53125 C 16.492188 -66.113281 16.390625 -64.238281 16.390625 -61.90625 C 16.390625 -59.488281 16.492188 -57.550781 16.703125 -56.09375 C 16.910156 -54.632812 17.328125 -53.507812 17.953125 -52.71875 C 18.578125 -51.925781 19.453125 -51.40625 20.578125 -51.15625 C 21.703125 -50.90625 23.222656 -50.78125 25.140625 -50.78125 L 41.515625 -50.78125 C 43.597656 -50.78125 45.265625 -50.90625 46.515625 -51.15625 C 47.773438 -51.40625 48.71875 -51.925781 49.34375 -52.71875 C 49.96875 -53.507812 50.363281 -54.675781 50.53125 -56.21875 C 50.695312 -57.757812 50.78125 -59.863281 50.78125 -62.53125 C 50.78125 -64.78125 50.675781 -66.570312 50.46875 -67.90625 C 50.257812 -69.238281 49.84375 -70.28125 49.21875 -71.03125 C 48.59375 -71.78125 47.671875 -72.257812 46.453125 -72.46875 C 45.242188 -72.675781 43.597656 -72.78125 41.515625 -72.78125 Z M 25.515625 -72.78125 "/></g></g></g><path fill="#4af626" d="M 282.929688 36.089844 L 294.234375 36.089844 L 294.234375 41.742188 L 282.929688 41.742188 Z M 282.929688 36.089844 " fill-opacity="1" fill-rule="nonzero"/><g clip-path="url(#3f7e7e1829)"><path fill="#4af626" d="M 274.453125 53.046875 L 285.757812 53.046875 L 285.757812 58.699219 L 274.453125 58.699219 Z M 274.453125 53.046875 " fill-opacity="1" fill-rule="nonzero"/></g><path fill="#4af626" d="M 282.929688 70 L 294.234375 70 L 294.234375 75.652344 L 282.929688 75.652344 Z M 282.929688 70 " fill-opacity="1" fill-rule="nonzero"/><path fill="#4af626" d="M 302.445312 64.347656 C 302.683594 64.644531 302.96875 64.886719 303.304688 65.066406 C 303.636719 65.25 303.992188 65.359375 304.371094 65.394531 C 304.75 65.433594 305.121094 65.398438 305.484375 65.285156 C 305.847656 65.175781 306.171875 64.996094 306.464844 64.753906 L 321.160156 52.515625 L 324.386719 53.589844 L 316.101562 68.5 C 315.523438 69.546875 315.132812 70.660156 314.921875 71.839844 C 314.714844 73.015625 314.707031 74.195312 314.890625 75.378906 L 308.308594 86.347656 L 288.582031 87.582031 C 288.222656 87.601562 287.882812 87.691406 287.554688 87.84375 C 287.230469 87.996094 286.945312 88.207031 286.695312 88.46875 C 286.449219 88.730469 286.261719 89.027344 286.128906 89.363281 C 285.996094 89.699219 285.933594 90.046875 285.933594 90.40625 L 285.933594 99.671875 C 285.933594 100.046875 286.003906 100.40625 286.148438 100.753906 C 286.289062 101.101562 286.496094 101.40625 286.761719 101.671875 C 287.023438 101.9375 287.332031 102.140625 287.675781 102.285156 C 288.023438 102.425781 288.382812 102.5 288.757812 102.5 L 312.816406 102.5 C 314 102.496094 315.132812 102.246094 316.210938 101.75 C 317.289062 101.257812 318.214844 100.558594 318.988281 99.660156 L 327.90625 89.253906 L 335.980469 95.53125 L 331.027344 120.300781 C 330.984375 120.507812 330.964844 120.714844 330.972656 120.921875 C 330.976562 121.132812 331.003906 121.339844 331.050781 121.542969 C 331.101562 121.746094 331.175781 121.941406 331.269531 122.128906 C 331.363281 122.316406 331.476562 122.492188 331.609375 122.652344 C 331.738281 122.816406 331.890625 122.960938 332.054688 123.089844 C 332.21875 123.21875 332.394531 123.328125 332.585938 123.417969 C 332.773438 123.507812 332.972656 123.578125 333.175781 123.625 C 333.378906 123.667969 333.585938 123.691406 333.796875 123.691406 L 343.070312 123.691406 C 343.367188 123.691406 343.660156 123.644531 343.949219 123.550781 C 344.234375 123.457031 344.496094 123.320312 344.738281 123.144531 C 344.980469 122.964844 345.1875 122.753906 345.363281 122.511719 C 345.539062 122.265625 345.671875 122 345.761719 121.714844 L 353.941406 96 C 354.191406 95.230469 354.324219 94.441406 354.339844 93.632812 C 354.351562 92.824219 354.246094 92.03125 354.019531 91.253906 C 353.796875 90.476562 353.460938 89.75 353.019531 89.074219 C 352.574219 88.398438 352.042969 87.800781 351.417969 87.285156 L 340.054688 77.816406 L 343.710938 71.261719 L 348.207031 77.546875 C 348.632812 78.148438 349.128906 78.675781 349.699219 79.140625 C 350.269531 79.601562 350.890625 79.980469 351.5625 80.277344 C 352.234375 80.570312 352.933594 80.769531 353.65625 80.875 C 354.382812 80.980469 355.109375 80.984375 355.839844 80.890625 L 373.898438 78.632812 C 374.242188 78.589844 374.5625 78.484375 374.867188 78.324219 C 375.171875 78.164062 375.4375 77.953125 375.664062 77.695312 C 375.894531 77.4375 376.066406 77.148438 376.1875 76.824219 C 376.3125 76.503906 376.371094 76.167969 376.371094 75.824219 L 376.371094 67.882812 C 376.371094 67.507812 376.300781 67.144531 376.15625 66.800781 C 376.011719 66.453125 375.808594 66.148438 375.542969 65.882812 C 375.277344 65.617188 374.972656 65.414062 374.625 65.269531 C 374.28125 65.128906 373.921875 65.054688 373.546875 65.054688 L 359.550781 65.054688 L 357.453125 59.808594 C 355.613281 55.222656 352.796875 51.34375 349.003906 48.175781 L 348.925781 48.113281 C 349.183594 48.128906 349.429688 48.1875 349.691406 48.1875 C 350.125 48.191406 350.554688 48.167969 350.984375 48.125 C 351.410156 48.082031 351.835938 48.015625 352.257812 47.925781 C 352.679688 47.835938 353.097656 47.726562 353.507812 47.589844 C 353.917969 47.457031 354.320312 47.304688 354.710938 47.125 C 355.105469 46.949219 355.488281 46.753906 355.859375 46.535156 C 356.234375 46.320312 356.59375 46.082031 356.941406 45.828125 C 357.289062 45.574219 357.621094 45.300781 357.941406 45.007812 C 358.257812 44.71875 358.558594 44.410156 358.847656 44.089844 C 359.132812 43.765625 359.398438 43.425781 359.648438 43.078125 C 359.898438 42.726562 360.128906 42.359375 360.339844 41.984375 C 360.550781 41.609375 360.742188 41.222656 360.910156 40.828125 C 361.082031 40.429688 361.230469 40.027344 361.359375 39.613281 C 361.484375 39.203125 361.589844 38.785156 361.671875 38.359375 C 361.753906 37.9375 361.8125 37.511719 361.851562 37.082031 C 361.886719 36.652344 361.902344 36.222656 361.894531 35.789062 C 361.882812 35.359375 361.851562 34.929688 361.796875 34.503906 C 361.742188 34.074219 361.667969 33.652344 361.566406 33.230469 C 361.46875 32.8125 361.347656 32.398438 361.203125 31.992188 C 361.058594 31.585938 360.894531 31.1875 360.707031 30.796875 C 360.523438 30.410156 360.316406 30.03125 360.089844 29.664062 C 359.863281 29.296875 359.621094 28.941406 359.355469 28.601562 C 359.09375 28.261719 358.8125 27.933594 358.511719 27.625 C 358.214844 27.3125 357.898438 27.019531 357.570312 26.742188 C 357.238281 26.460938 356.894531 26.203125 356.539062 25.960938 C 356.179688 25.722656 355.8125 25.5 355.429688 25.296875 C 355.050781 25.097656 354.660156 24.914062 354.257812 24.753906 C 353.859375 24.59375 353.449219 24.457031 353.035156 24.339844 C 352.621094 24.222656 352.199219 24.128906 351.773438 24.054688 C 351.347656 23.984375 350.921875 23.933594 350.492188 23.910156 C 350.0625 23.882812 349.628906 23.878906 349.199219 23.898438 C 348.769531 23.917969 348.339844 23.960938 347.914062 24.023438 C 347.488281 24.089844 347.066406 24.175781 346.648438 24.285156 C 346.230469 24.398438 345.820312 24.527344 345.417969 24.683594 C 345.015625 24.835938 344.621094 25.007812 344.238281 25.203125 C 343.855469 25.402344 343.480469 25.617188 343.121094 25.851562 C 342.757812 26.085938 342.410156 26.339844 342.074219 26.613281 C 341.742188 26.882812 341.421875 27.171875 341.117188 27.480469 C 340.816406 27.785156 340.527344 28.105469 340.257812 28.441406 C 339.988281 28.78125 339.738281 29.128906 339.507812 29.492188 C 339.273438 29.855469 339.0625 30.230469 338.871094 30.617188 C 338.675781 31.003906 338.503906 31.398438 338.355469 31.800781 C 338.203125 32.207031 338.078125 32.617188 337.96875 33.035156 C 337.863281 33.453125 337.78125 33.875 337.71875 34.300781 C 337.65625 34.730469 337.617188 35.15625 337.601562 35.589844 C 337.585938 36.019531 337.59375 36.449219 337.621094 36.878906 C 337.652344 37.308594 337.707031 37.738281 337.78125 38.164062 C 337.855469 38.585938 337.953125 39.007812 338.074219 39.421875 C 338.195312 39.835938 338.335938 40.242188 338.5 40.640625 C 335.152344 38.960938 331.625 37.851562 327.917969 37.316406 L 320.804688 36.300781 C 319.589844 36.121094 318.398438 36.214844 317.226562 36.582031 C 316.054688 36.949219 315.023438 37.550781 314.125 38.386719 L 297.433594 53.894531 C 297.171875 54.136719 296.964844 54.417969 296.808594 54.742188 C 296.65625 55.0625 296.566406 55.402344 296.539062 55.757812 C 296.511719 56.113281 296.550781 56.460938 296.65625 56.800781 C 296.761719 57.144531 296.929688 57.453125 297.152344 57.730469 Z M 314.703125 95.96875 C 314.203125 96.542969 313.574219 96.835938 312.816406 96.847656 L 291.585938 96.847656 L 291.585938 93.054688 L 310.128906 91.894531 C 310.597656 91.867188 311.03125 91.734375 311.429688 91.492188 C 311.828125 91.253906 312.148438 90.929688 312.390625 90.53125 L 317.914062 81.320312 C 318.226562 81.648438 318.558594 81.957031 318.910156 82.246094 L 323.453125 85.78125 Z M 349.691406 29.644531 C 350.117188 29.644531 350.535156 29.6875 350.949219 29.769531 C 351.363281 29.851562 351.769531 29.972656 352.160156 30.136719 C 352.550781 30.296875 352.921875 30.496094 353.273438 30.730469 C 353.625 30.964844 353.949219 31.234375 354.25 31.53125 C 354.550781 31.832031 354.816406 32.15625 355.050781 32.507812 C 355.285156 32.863281 355.484375 33.234375 355.648438 33.625 C 355.808594 34.015625 355.933594 34.417969 356.015625 34.832031 C 356.097656 35.25 356.136719 35.667969 356.136719 36.089844 C 356.136719 36.515625 356.097656 36.933594 356.015625 37.347656 C 355.933594 37.761719 355.808594 38.167969 355.648438 38.558594 C 355.484375 38.949219 355.285156 39.320312 355.050781 39.671875 C 354.816406 40.023438 354.550781 40.347656 354.25 40.648438 C 353.949219 40.949219 353.625 41.214844 353.273438 41.449219 C 352.921875 41.683594 352.550781 41.882812 352.160156 42.046875 C 351.769531 42.207031 351.363281 42.328125 350.949219 42.414062 C 350.535156 42.496094 350.117188 42.535156 349.691406 42.535156 C 349.269531 42.535156 348.851562 42.496094 348.433594 42.414062 C 348.019531 42.328125 347.617188 42.207031 347.226562 42.046875 C 346.835938 41.882812 346.464844 41.683594 346.109375 41.449219 C 345.757812 41.214844 345.433594 40.949219 345.132812 40.648438 C 344.835938 40.347656 344.566406 40.023438 344.332031 39.671875 C 344.097656 39.320312 343.898438 38.949219 343.738281 38.558594 C 343.574219 38.167969 343.453125 37.761719 343.371094 37.347656 C 343.289062 36.933594 343.246094 36.515625 343.246094 36.089844 C 343.246094 35.667969 343.289062 35.25 343.371094 34.832031 C 343.453125 34.417969 343.578125 34.015625 343.738281 33.625 C 343.902344 33.234375 344.097656 32.863281 344.335938 32.511719 C 344.570312 32.160156 344.835938 31.832031 345.136719 31.535156 C 345.433594 31.234375 345.761719 30.96875 346.113281 30.734375 C 346.464844 30.496094 346.835938 30.300781 347.226562 30.136719 C 347.617188 29.976562 348.019531 29.851562 348.433594 29.769531 C 348.851562 29.6875 349.269531 29.644531 349.691406 29.644531 Z M 317.972656 42.527344 C 318.546875 41.992188 319.222656 41.78125 320 41.894531 L 327.117188 42.914062 C 329.777344 43.292969 332.332031 44.027344 334.785156 45.117188 C 337.242188 46.207031 339.5 47.613281 341.5625 49.332031 L 345.382812 52.515625 C 348.445312 55.074219 350.71875 58.203125 352.203125 61.90625 L 355.011719 68.933594 C 355.226562 69.46875 355.574219 69.898438 356.050781 70.222656 C 356.53125 70.546875 357.058594 70.707031 357.636719 70.707031 L 370.707031 70.707031 L 370.707031 73.335938 L 355.125 75.28125 C 354.671875 75.335938 354.242188 75.273438 353.824219 75.089844 C 353.410156 74.90625 353.070312 74.632812 352.804688 74.265625 L 345.710938 64.332031 C 345.570312 64.136719 345.410156 63.964844 345.230469 63.8125 C 345.046875 63.660156 344.847656 63.53125 344.632812 63.425781 C 344.417969 63.324219 344.195312 63.25 343.960938 63.203125 C 343.726562 63.15625 343.492188 63.140625 343.253906 63.152344 C 343.015625 63.167969 342.785156 63.210938 342.558594 63.28125 C 342.328125 63.351562 342.113281 63.453125 341.914062 63.578125 C 341.710938 63.703125 341.527344 63.855469 341.363281 64.027344 C 341.199219 64.199219 341.058594 64.390625 340.945312 64.597656 L 333.976562 77.101562 C 333.8125 77.390625 333.707031 77.695312 333.652344 78.023438 C 333.601562 78.347656 333.605469 78.671875 333.664062 78.996094 C 333.726562 79.320312 333.839844 79.625 334.003906 79.910156 C 334.171875 80.191406 334.382812 80.441406 334.636719 80.652344 L 347.792969 91.609375 C 348.175781 91.933594 348.4375 92.335938 348.578125 92.820312 C 348.71875 93.300781 348.710938 93.78125 348.558594 94.261719 L 341.003906 118.039062 L 337.246094 118.039062 L 341.863281 94.929688 C 341.96875 94.402344 341.929688 93.890625 341.742188 93.386719 C 341.558594 92.886719 341.253906 92.46875 340.832031 92.140625 L 322.367188 77.785156 C 321.882812 77.410156 321.476562 76.964844 321.152344 76.441406 C 320.828125 75.921875 320.605469 75.363281 320.484375 74.761719 C 320.363281 74.160156 320.347656 73.558594 320.441406 72.953125 C 320.535156 72.347656 320.734375 71.777344 321.03125 71.242188 L 330.972656 53.359375 C 331.070312 53.179688 331.152344 52.988281 331.210938 52.789062 C 331.269531 52.589844 331.308594 52.386719 331.320312 52.179688 C 331.335938 51.972656 331.328125 51.765625 331.296875 51.558594 C 331.265625 51.355469 331.210938 51.15625 331.136719 50.960938 C 331.058594 50.769531 330.964844 50.585938 330.847656 50.414062 C 330.734375 50.238281 330.601562 50.082031 330.449219 49.9375 C 330.300781 49.796875 330.136719 49.671875 329.957031 49.5625 C 329.777344 49.457031 329.589844 49.371094 329.394531 49.304688 L 321.449219 46.65625 C 320.984375 46.5 320.511719 46.46875 320.03125 46.558594 C 319.546875 46.648438 319.121094 46.851562 318.742188 47.164062 L 305.0625 58.566406 L 303.207031 56.246094 Z M 317.972656 42.527344 " fill-opacity="1" fill-rule="nonzero"/><g clip-path="url(#f9af140d00)"><path fill="#4af626" d="M 274.453125 129.34375 L 449.65625 129.34375 L 449.65625 134.996094 L 274.453125 134.996094 Z M 274.453125 129.34375 " fill-opacity="1" fill-rule="nonzero"/></g><g clip-path="url(#2bbc5e7c71)"><path fill="#4af626" d="M 412.921875 36.089844 L 412.921875 27.484375 L 443.273438 67.175781 L 412.921875 106.867188 L 412.921875 98.257812 C 412.921875 97.886719 412.847656 97.523438 412.707031 97.179688 C 412.5625 96.832031 412.359375 96.527344 412.09375 96.261719 C 411.828125 95.996094 411.523438 95.792969 411.175781 95.648438 C 410.832031 95.503906 410.46875 95.433594 410.09375 95.433594 L 362.054688 95.433594 L 362.054688 101.085938 L 407.269531 101.085938 L 407.269531 115.214844 C 407.269531 115.511719 407.316406 115.796875 407.40625 116.078125 C 407.496094 116.359375 407.628906 116.621094 407.800781 116.863281 C 407.972656 117.101562 408.175781 117.308594 408.414062 117.484375 C 408.652344 117.660156 408.910156 117.796875 409.191406 117.890625 C 409.484375 117.992188 409.785156 118.039062 410.09375 118.039062 C 410.535156 118.039062 410.953125 117.941406 411.347656 117.746094 C 411.742188 117.550781 412.070312 117.28125 412.339844 116.929688 L 449.074219 68.890625 C 449.261719 68.644531 449.40625 68.375 449.507812 68.082031 C 449.605469 67.785156 449.65625 67.484375 449.65625 67.175781 C 449.65625 66.863281 449.605469 66.5625 449.507812 66.269531 C 449.40625 65.976562 449.261719 65.707031 449.074219 65.460938 L 412.339844 17.421875 C 412.160156 17.1875 411.949219 16.984375 411.707031 16.816406 C 411.464844 16.648438 411.199219 16.519531 410.917969 16.433594 C 410.636719 16.347656 410.347656 16.308594 410.050781 16.3125 C 409.757812 16.316406 409.46875 16.367188 409.1875 16.460938 C 408.910156 16.554688 408.652344 16.691406 408.414062 16.867188 C 408.175781 17.042969 407.972656 17.25 407.800781 17.488281 C 407.628906 17.730469 407.496094 17.988281 407.40625 18.269531 C 407.316406 18.550781 407.269531 18.839844 407.269531 19.136719 L 407.269531 33.265625 L 370.53125 33.265625 L 370.53125 38.917969 L 410.09375 38.917969 C 410.46875 38.917969 410.832031 38.84375 411.175781 38.703125 C 411.523438 38.558594 411.828125 38.355469 412.09375 38.089844 C 412.359375 37.824219 412.5625 37.519531 412.707031 37.171875 C 412.847656 36.824219 412.921875 36.464844 412.921875 36.089844 Z M 412.921875 36.089844 " fill-opacity="1" fill-rule="nonzero"/></g></svg>